<svg width="90" height="90" viewBox="0 0 90 90" fill="none" xmlns="http://www.w3.org/2000/svg">
<path d="M3 64.5L2 27H56H59.5V56L57.5 64.5H31.5L18.5 75L12.5 78.5V64.5H3Z" fill="#C7E9F4"/>
<path d="M14.1342 81.6792C13.4921 81.6792 12.844 81.5393 12.2337 81.2522C10.5775 80.4735 9.57656 78.7903 9.68344 76.963L10.2575 67.1576H5.85809C2.62793 67.1576 0 64.5298 0 61.2995V29.3711C0 26.1408 2.62793 23.513 5.85809 23.513H55.761C58.9913 23.513 61.6191 26.141 61.6191 29.3711V61.2995C61.6191 64.5296 58.9911 67.1576 55.761 67.1576H50.2418C48.9004 67.1576 47.813 66.0702 47.813 64.7288C47.813 63.3874 48.9004 62.3 50.2418 62.3H55.7612C56.3129 62.3 56.7619 61.8513 56.7619 61.2993V29.3711C56.7619 28.8193 56.3131 28.3704 55.7612 28.3704H5.85809C5.30648 28.3704 4.85736 28.8192 4.85736 29.3711V61.2995C4.85736 61.8511 5.30613 62.3002 5.85809 62.3002H12.8327C13.5014 62.3002 14.1405 62.5758 14.5997 63.0626C15.0585 63.5491 15.2965 64.2034 15.2575 64.871L14.592 76.2361L28.8397 62.9525C29.2895 62.5333 29.8812 62.3002 30.4959 62.3002H51.5C52.8414 62.3002 54 63.3876 54 64.729C54 66.0704 51.8414 67.1578 50.5 67.1578H31.4524L17.1633 80.4797C16.3183 81.2677 15.2348 81.6792 14.1342 81.6792Z" fill="#13829B"/>
<path d="M84.1419 10.7497H34.2388C32.345 10.7497 30.8093 12.2852 30.8093 14.179V25.942H55.7609C57.6548 25.942 59.1903 27.4774 59.1903 29.3715V49.5369H59.5039L74.4924 63.511C75.8274 64.7557 77.9983 63.7351 77.8916 61.9128L77.1669 49.5366H84.1415C86.0354 49.5366 87.5709 48.0011 87.5709 46.1072V14.179C87.5712 12.285 86.0358 10.7497 84.1419 10.7497Z" fill="white"/>
<path d="M75.8581 66.488C74.74 66.488 73.6672 66.0618 72.8365 65.2875L58.4101 51.8376C57.4517 51.5125 56.7616 50.6052 56.7616 49.5368V29.3713C56.7616 28.8197 56.3129 28.3706 55.7609 28.3706H30.8096C29.4682 28.3706 28.3809 27.2832 28.3809 25.9418V14.1791C28.3809 10.9487 31.0088 8.32098 34.2389 8.32098H84.1418C87.372 8.32098 89.9999 10.9489 89.9999 14.1791V46.1074C89.9999 49.3376 87.372 51.9655 84.1418 51.9655H79.7422L80.3163 61.771C80.3889 63.0109 79.9656 64.185 79.1243 65.0771C78.2788 65.9737 77.0883 66.488 75.8581 66.488ZM61.6193 48.1883L75.4081 61.0438L74.7426 49.6788C74.7036 49.0112 74.9416 48.3571 75.4004 47.8704C75.8594 47.3838 76.4985 47.108 77.1674 47.108H84.142C84.6936 47.108 85.1427 46.6592 85.1427 46.1073V14.1791C85.1427 13.6275 84.694 13.1783 84.142 13.1783H34.2389C33.6872 13.1783 33.2382 13.6271 33.2382 14.1791V23.5132H55.7611C58.9912 23.5132 61.6192 26.1412 61.6192 29.3713V48.1883H61.6193Z" fill="#13829B"/>
<path d="M45.0001 42.2622H15.855C14.5137 42.2622 13.4263 41.1748 13.4263 39.8334C13.4263 38.492 14.5137 37.4047 15.855 37.4047H45.0001C46.3415 37.4047 47.4289 38.492 47.4289 39.8334C47.4289 41.1748 46.3415 42.2622 45.0001 42.2622Z" fill="#13829B"/>
<path d="M41.1542 54.716H19.7003C18.3589 54.716 17.2715 53.6286 17.2715 52.2872C17.2715 50.9458 18.3589 49.8585 19.7003 49.8585H41.1542C42.4956 49.8585 43.583 50.9458 43.583 52.2872C43.583 53.6286 42.4956 54.716 41.1542 54.716Z" fill="#13829B"/>
</svg>
