<svg width="90" height="90" viewBox="0 0 90 90" fill="none" xmlns="http://www.w3.org/2000/svg">
    <path d="M44.9999 73.4338C64.7129 73.4338 80.6935 57.4533 80.6935 37.7403C80.6935 18.0273 64.7129 2.04672 44.9999 2.04672C25.2869 2.04672 9.3064 18.0273 9.3064 37.7403C9.3064 57.4533 25.2869 73.4338 44.9999 73.4338Z" fill="#FF9392"/>
    <path d="M45 73.4335C31.0086 73.4335 18.8996 65.382 13.0479 53.6608V79.4935H76.9518V53.6608C71.1004 65.382 58.9914 73.4335 45 73.4335Z" fill="#C7E9F4"/>
    <path d="M45.0001 65.3028C60.2225 65.3028 72.5627 52.9626 72.5627 37.7402C72.5627 22.5179 60.2225 10.1777 45.0001 10.1777C29.7777 10.1777 17.4375 22.5179 17.4375 37.7402C17.4375 52.9626 29.7777 65.3028 45.0001 65.3028Z" fill="white"/>
    <path d="M45.0001 42.2106C47.469 42.2106 49.4704 40.2092 49.4704 37.7403C49.4704 35.2714 47.469 33.27 45.0001 33.27C42.5312 33.27 40.5298 35.2714 40.5298 37.7403C40.5298 40.2092 42.5312 42.2106 45.0001 42.2106Z" fill="#F59D00"/>
    <path d="M74.2231 87.9533H15.7771C14.2699 87.9533 13.0481 86.7315 13.0481 85.2243V79.4935H76.9521V85.2243C76.9521 86.7315 75.7303 87.9533 74.2231 87.9533Z" fill="#51B3DA"/>
    <path d="M82.7403 37.7403C82.7403 16.9302 65.81 0 45 0C24.19 0 7.26001 16.9302 7.26001 37.7403C7.26001 43.6043 8.60457 49.1602 11.0014 54.116C11.0014 57.254 11.0014 81.3609 11.0014 85.2243C11.0014 87.8575 13.1439 90 15.7771 90H74.2234C76.8566 90 78.9991 87.8575 78.9991 85.2243C78.9991 81.3609 78.9991 57.254 78.9991 54.116C81.3957 49.1602 82.7403 43.6043 82.7403 37.7403ZM74.9054 60.7632V77.4467H15.0949V60.7632C22.2319 70.0259 33.2433 75.4802 45.0003 75.4802C56.7346 75.4802 67.7541 70.0436 74.9054 60.7632ZM45 4.09345C63.5529 4.09345 78.6468 19.1874 78.6468 37.7403C78.6468 56.3204 63.5223 71.3868 45 71.3868C26.4962 71.3868 11.3535 56.3385 11.3535 37.7403C11.3535 19.1874 26.4471 4.09345 45 4.09345ZM74.9054 85.2243C74.9054 85.6006 74.5995 85.9065 74.2232 85.9065H15.7771C15.4011 85.9065 15.0949 85.6006 15.0949 85.2243V81.5402H74.9057V85.2243H74.9054Z" fill="#13829B"/>
    <path d="M44.9999 67.3496C61.2264 67.3496 74.6092 54.1839 74.6092 37.7403C74.6092 21.4137 61.3202 8.13095 44.9999 8.13095C28.6736 8.13095 15.3906 21.4197 15.3906 37.7403C15.3906 54.0666 28.6796 67.3496 44.9999 67.3496ZM23.2028 35.6935H19.5665C20.005 30.1938 22.1956 25.1807 25.5776 21.2123L28.1401 23.7748C28.9397 24.5741 30.2351 24.5738 31.0344 23.7748C31.8337 22.9752 31.8337 21.6795 31.0344 20.8801L28.4722 18.3179C32.4407 14.9359 37.4538 12.7454 42.9535 12.3068V15.9434C42.9535 17.0741 43.8699 17.9902 45.0002 17.9902C46.1308 17.9902 47.0469 17.0741 47.0469 15.9434V12.3065C52.5466 12.7451 57.5595 14.9356 61.5279 18.3176L58.9657 20.8799C58.1664 21.6795 58.1664 22.9752 58.9657 23.7745C59.7656 24.5738 61.061 24.5735 61.8603 23.7745L64.4225 21.2123C67.8045 25.1807 69.9951 30.1938 70.4336 35.6933H66.797C65.6664 35.6933 64.7503 36.6094 64.7503 37.74C64.7503 38.8706 65.6664 39.7867 66.797 39.7867H70.4336C69.9951 45.2864 67.8045 50.2992 64.4225 54.2677L61.8603 51.7055C61.0607 50.9064 59.765 50.9064 58.9657 51.7055C58.1664 52.5051 58.1664 53.8008 58.9657 54.6001L61.5279 57.1623C57.5595 60.5443 52.5463 62.7349 47.0469 63.1734V59.5368C47.0469 58.4062 46.1308 57.4901 45.0002 57.4901C43.8699 57.4901 42.9535 58.4062 42.9535 59.5368V63.1734C37.4538 62.7349 32.4407 60.5443 28.4722 57.1623L31.0344 54.6001C31.8337 53.8005 31.8337 52.5048 31.0344 51.7055C30.2351 50.9064 28.9391 50.9064 28.1401 51.7055L25.5776 54.268C22.1956 50.2995 20.005 45.2864 19.5665 39.787H23.2031C24.3335 39.787 25.2498 38.8709 25.2498 37.7403C25.2496 36.6096 24.3332 35.6935 23.2028 35.6935Z" fill="#13829B"/>
    <path d="M45 44.2573C47.8785 44.2573 50.3255 42.3806 51.186 39.787H56.1887C57.3193 39.787 58.2355 38.8709 58.2355 37.7403C58.2355 36.6097 57.3193 35.6935 56.1887 35.6935H51.186C50.5392 33.744 48.9963 32.201 47.0467 31.5542V22.3273C47.0467 21.1967 46.1306 20.2806 45 20.2806C43.8696 20.2806 42.9532 21.1967 42.9532 22.3273V31.5542C40.3596 32.4147 38.4829 34.8615 38.4829 37.7403C38.4829 41.3338 41.4065 44.2573 45 44.2573ZM45 35.3167C46.3361 35.3167 47.4236 36.4039 47.4236 37.7403C47.4236 39.0764 46.3363 40.1639 45 40.1639C43.6636 40.1639 42.5764 39.0766 42.5764 37.7403C42.5764 36.4039 43.6636 35.3167 45 35.3167Z" fill="#13829B"/>
    <path d="M70.5751 75.6729C71.987 75.6729 73.1315 74.5283 73.1315 73.1164C73.1315 71.7045 71.987 70.5599 70.5751 70.5599C69.1631 70.5599 68.0186 71.7045 68.0186 73.1164C68.0186 74.5283 69.1631 75.6729 70.5751 75.6729Z" fill="#13829B"/>
    </svg>
