<svg width="16" height="12" viewBox="0 0 16 12" fill="none" xmlns="http://www.w3.org/2000/svg">
    <path opacity="0.8" fill-rule="evenodd" clip-rule="evenodd" d="M0.00818468 0.837743C0.00818468 0.375074 0.38325 0 0.845927 0H14.2416C14.7043 0 15.0794 0.375074 15.0794 0.837743V10.3245C15.0794 11.2499 14.3293 12 13.4039 12H1.67549C0.75014 12 0 11.2499 0 10.3245V1.10936C0 1.06946 0.00278961 1.03022 0.00818468 0.991812V0.837743ZM1.67549 2.70068V10.3245H13.4039V2.70097L9.31695 6.7879C8.33545 7.7694 6.74416 7.7694 5.76271 6.7879L1.67549 2.70068ZM2.99268 1.64838H12.0869L8.13222 5.60317C7.80508 5.9303 7.27462 5.9303 6.94748 5.60317L2.99268 1.64838Z" fill="white"/>
    </svg>
