<svg width="90" height="90" viewBox="0 0 90 90" fill="none" xmlns="http://www.w3.org/2000/svg">
    <g clip-path="url(#clip0)">
    <path d="M7.44653 57.3666L82.5505 2.58356L38.2497 60.9536L7.44653 57.3666Z" fill="#C7E9F4"/>
    <path d="M82.5506 2.58356L38.2498 60.9536L74.1642 87.4165L82.5506 2.58356Z" fill="#C7E9F4"/>
    <path d="M38.2498 60.9536V85.8003L52.1792 71.2172L38.2498 60.9536Z" fill="#C7E9F4"/>
    <path d="M81.0291 0.497786L5.92511 55.2808C4.03247 56.6612 4.8194 59.6599 7.1482 59.9312L35.6683 63.2521V85.8003C35.6683 88.138 38.5224 89.2533 40.1173 87.5834L52.477 74.6434L72.6327 89.495C74.2379 90.6771 76.536 89.6682 76.7336 87.6705L85.12 2.8376C85.3486 0.619647 82.816 -0.806547 81.0291 0.497786ZM69.8557 15.0396L37.0845 58.2186L14.2978 55.5651L69.8557 15.0396ZM40.8319 79.3591V66.0628L48.2858 71.5552L40.8319 79.3591ZM72.0416 82.6453C67.4845 79.2875 46.5212 63.8411 41.8898 60.4282L79.0824 11.4244L72.0416 82.6453Z" fill="#13829B"/>
    <path d="M69.2918 42.4309C67.8746 42.2901 66.6088 43.3273 66.4684 44.7463L64.7678 61.9432C64.6277 63.3622 65.6642 64.6263 67.0832 64.7664C67.1696 64.775 67.2553 64.7791 67.3403 64.7791C68.6519 64.7791 69.7748 63.7836 69.9067 62.451L71.6069 45.254C71.7473 43.8351 70.7108 42.571 69.2918 42.4309Z" fill="#13829B"/>
    </g>
    <defs>
    <clipPath id="clip0">
    <rect width="90" height="90" fill="white"/>
    </clipPath>
    </defs>
    </svg>
